# xmcd
#
# Track frame offsets: 
#        150
#        14788
#        34252
#        49302
#        60559
#        72630
#        87127
#        105971
#        118959
#        131801
#        142968
#        158547
#        180395
#        198226
#        215074
#        226908
#
# Disc length: 3281 seconds
#
# Revision: 1
# Processed by: cddbd v1.5.2PL0 Copyright (c) Steve Scherf et al.
# Submitted via: ExactAudioCopy v1.1
#
DISCID=e50ccf10
DTITLE=Various Artist - Motown 50
DYEAR=2008
DGENRE=Pop
TTITLE0=Marvin Gaye - I Heard It Through The Grapevine
TTITLE1=Commodores - Easy
TTITLE2=Rick James - Super Freak 
TTITLE3=The Marvelettes - Please Mr Postman
TTITLE4=Martha Reeves and The Vandellas - Dancing In The Street 
TTITLE5=Marvin Gaye - Mercy Mercy Me
TTITLE6=Michael Jackson - Aint No Sunshine
TTITLE7=The Contours - Do You Love Me
TTITLE8=Stevie Wonder - For Once In My Life
TTITLE9=Narvin Gaye and Tammi Terrell - Aint No Mountain High Enough
TTITLE10=Edwin Starr - War
TTITLE11=Stevie Wonder - Master Blaster
TTITLE12=Rockwell - Somebodys Watching Me
TTITLE13=Diana Ross - Im Still Waiting
TTITLE14=The Temptations - Get Ready
TTITLE15=Michael Jackson - One Day In Your Life
EXTD=
EXTT0=
EXTT1=
EXTT2=
EXTT3=
EXTT4=
EXTT5=
EXTT6=
EXTT7=
EXTT8=
EXTT9=
EXTT10=
EXTT11=
EXTT12=
EXTT13=
EXTT14=
EXTT15=
PLAYORDER=
